<svg xmlns="http://www.w3.org/2000/svg" width="58" height="58" fill="none" viewBox="0 0 58 58">
  <circle cx="29" cy="27" r="25" fill="#2e2e42"/>
  <g fill="#fff">
    <path d="M18.0549 18.0549h18.691v3.4735h1.055v-4.0009c0-.2913-.2362-.5275-.5275-.5275H17.5275c-.2913 0-.5275.2362-.5275.5275v12.7252c0 .2914.2362.5275.5275.5275h5.4382v-1.0549h-4.9108V18.0549z"/>
    <path fill-rule="evenodd" d="M27.154 28.3301h5.1402c.235-.0015.427.187.4299.422v6.7147c-.0029.2349-.1949.4234-.4299.422H27.154c-.2349.0014-.427-.1871-.4299-.422v-6.7147c.0029-.235.195-.4235.4299-.422zm.4299 6.7121h4.2804v-5.8655h-4.2804v5.8655z" clip-rule="evenodd"/>
    <path d="M33.3677 33.0117h1.95165v.994286H33.3677z"/>
    <path d="M40.4381 22.6045H24.5163c-.2738 0-.4958.222-.4958.4958v10.407c0 .1316.0522.2577.1452.3507.093.0929.2191.1452.3506.1452h1.4981v-.9917h-1.0022v-9.4074h14.9274v9.4074h-.2162v.9943h.7147c.2738 0 .4958-.222.4958-.4958V23.1082c.0021-.1328-.0492-.261-.1424-.3557s-.2205-.148-.3534-.148z"/>
    <path fill-rule="evenodd" d="M36.3608 30.7803h2.2628c.2535 0 .4589.2054.4589.4589v4.2382c0 .2535-.2054.4589-.4589.4589h-2.2628c-.2535 0-.4589-.2054-.4589-.4589v-4.2382c0-.2535.2054-.4589.4589-.4589zm.4615 4.2382h1.3451v-3.3204h-1.3451v3.3204z" clip-rule="evenodd"/>
  </g>
</svg>
