<svg xmlns="http://www.w3.org/2000/svg" width="58" height="58" fill="none" viewBox="0 0 58 58">
  <circle cx="29" cy="27" r="25" fill="#2e2e42"/>
  <path fill="#fff" fill-rule="evenodd" d="M24.2002 37.08h4.8c.264 0 .48-.216.48-.48v-2.88c0-.264-.216-.48-.48-.48h-4.8c-.264 0-.48.216-.48.48v2.88c0 .264.216.48.48.48zm4.32-.96h-3.84V34.2h3.84v1.92z" clip-rule="evenodd"/>
  <path fill="#fff" d="M32.8402 39c-.072 0-.144-.0144-.216-.0528l-3.84-1.92c-.2352-.12-.3312-.408-.216-.6432.12-.2352.408-.3312.6432-.216l3.84 1.92c.2352.12.3312.408.216.6432-.0816.1728-.2496.2688-.4272.2688zm-12.4801 0c-.1776 0-.3456-.096-.432-.264-.12-.2352-.024-.5232.216-.6432l3.84-1.92c.2352-.12.5232-.024.6432.216.12.2352.024.5232-.216.6432l-3.84 1.92c-.0672.0336-.1392.048-.2112.048z"/>
  <path fill="#fff" fill-rule="evenodd" d="M17.48 34.2h18.24c.264 0 .48-.216.4752-.48v-5.0832c0-.1488-.072-.2928-.192-.384-.12-.0912-.2784-.12-.4224-.0768-.576.1728-1.176.2592-1.7808.2592-3.4416 0-6.24-2.7984-6.24-6.24 0-.6048.0864-1.2048.2592-1.7808.0432-.144.0144-.3024-.0768-.4224-.0912-.12-.2304-.192-.384-.192H17.48c-.264 0-.48.216-.48.48v13.44c0 .264.216.48.48.48zm17.76-.96H17.96V20.76h8.784c-.096.4704-.144.9552-.144 1.44 0 3.9696 3.2304 7.2 7.2 7.2.4848 0 .9696-.048 1.44-.144v3.984z" clip-rule="evenodd"/>
  <path fill="#fff" fill-rule="evenodd" d="M26.6001 22.2c0 3.9696 3.2304 7.2 7.2 7.2 3.9696 0 7.2-3.2304 7.2-7.2 0-3.9696-3.2304-7.2-7.2-7.2-3.9696 0-7.2 3.2304-7.2 7.2zm.96 0c0-3.4416 2.7984-6.24 6.24-6.24s6.24 2.7984 6.24 6.24-2.7984 6.24-6.24 6.24-6.24-2.7984-6.24-6.24z" clip-rule="evenodd"/>
  <path fill="#fff" d="M33.7998 26.52c-.264 0-.48-.216-.48-.48v-7.68c0-.264.216-.48.48-.48s.48.216.48.48v7.68c0 .264-.216.48-.48.48z"/>
  <path fill="#fff" d="M33.8002 26.52c-.1248 0-.2448-.048-.3408-.1392l-2.88-2.88c-.1872-.1872-.1872-.4896 0-.6768.1872-.1872.4896-.1872.6768 0l2.5392 2.5392 2.5392-2.5392c.1872-.1872.4896-.1872.6768 0 .1872.1872.1872.4896 0 .6768l-2.88 2.88c-.0864.0912-.2064.1392-.3312.1392z"/>
</svg>
